PathFileType	4	(X/Y/Z)	C:/Users/beibeiliu/ov580/test_trc\sequence.42_training_dense_left.trc
DataRate	CameraRate	NumFrames	NumMarkers	Units	OrigDataRate	OrigDataStartFrame	OrigNumFrames
120	120	22	19	mm	120	55	81
Frame#	Time	ThumbCMC			ThumbMCP			ThumbIP			ThumbTip			IndexMCP			IndexPIP			IndexTip			MiddleMCP			MiddlePIP			MiddleTip			RingMCP			RingPIP			RingTip			PinkyMCP			PinkyPIP			PinkyTip			BackHand1			BackHand2			BackHand3	
		X0	Y0	Z0	X1	Y1	Z1	X2	Y2	Z2	X3	Y3	Z3	X4	Y4	Z4	X5	Y5	Z5	X6	Y6	Z6	X7	Y7	Z7	X8	Y8	Z8	X9	Y9	Z9	X10	Y10	Z10	X11	Y11	Z11	X12	Y12	Z12	X13	Y13	Z13	X14	Y14	Z14	X15	Y15	Z15	X16	Y16	Z16	X17	Y17	Z17	X18	Y18	Z18	
54	0.45	-189.557	91.6584	74.9698	-162.435	90.3885	67.3312	-140.645	92.8405	53.7972	-125.846	87.0295	41.3223	-183.203	101.843	12.3902	-156.977	101.755	-4.50632	-135.525	94.277	-0.934375	-190.518	82.0793	-0.750803	-163.354	81.8945	-16.6403	-136.923	72.4109	-4.86406	-195.431	63.9043	2.92671	-171.096	62.5954	-14.0968	-148.645	62.0684	-5.11601	-196.215	46.3827	8.1239	-176.608	46.4117	-3.68757	-154.292	48.8633	3.93825	-220.708	60.0896	40.6462	-230.1	54.6219	64.6346	-217.09	85.6402	57.7852	
55	0.458333	-200.185	84.4281	69.1619	-171.389	97.2945	62.6381	-153.011	101.082	51.8943	-131.451	106.383	42.5334	-188.273	87.9976	6.89917	-162.94	94.703	-7.66584	-137.409	97.3003	-1.67224	-185.349	69.7878	-3.56897	-158.35	75.7539	-18.6636	-132.876	74.5349	-5.78898	-185.214	52.0307	4.17307	-156.527	55.7871	-11.8229	-137.405	63.0225	-0.524717	-179.656	30.6785	12.1858	-161.117	37.1468	0.859094	-136.443	47.6239	11.2578	-210.867	44.8439	39.2833	-222.974	40.9824	59.0433	-223.114	66.9894	51.066	
56	0.466667	-208.339	72.9295	62.3088	-186.516	93.5774	57.2616	-169.143	105.24	46.3914	-151.05	112.358	39.0129	-189.815	73.2313	0.757758	-169.029	85.9795	-11.221	-147.522	97.7962	-5.91671	-178.846	53.1193	-5.92041	-152.907	64.1894	-17.4031	-129.471	76.1717	-1.961	-173.025	36.5533	6.94409	-146.634	47.7697	-6.9976	-132.268	65.9448	4.74172	-165.057	21.7669	21.3204	-145.569	28.685	8.70367	-127.591	48.1866	16.7531	-197.559	23.269	36.2511	-213.33	17.122	61.3102	-217.945	47.4927	44.7821	
57	0.475	-211.885	47.1913	61.3994	-198.851	71.7058	50.6027	-182.127	85.7811	35.6875	-168.225	96.9461	27.4652	-185.528	48.6295	-3.12034	-167.755	62.7709	-15.1292	-152.613	84.1346	-10.4991	-168.452	30.0292	-3.41664	-150.254	44.6609	-17.1012	-131.759	71.5286	-3.6734	-157.624	20.157	7.39537	-140.012	36.0348	-5.37237	-130.738	56.501	1.92357	-146.439	9.80236	29.2374	-126.409	22.7959	17.1834	-119.727	45.2602	19.0341	-181.094	5.09388	45.7698	-198.592	-0.0113087	64.5283	-209.175	17.4678	46.9608	
58	0.483333	-212.222	20.5161	57.8465	-203.361	44.1623	42.336	-195.274	58.9455	27.5472	-180.25	72.9374	13.6826	-178.686	15.1182	-1.27894	-165.83	32.0345	-18.1373	-155.66	61.2573	-17.0048	-156.903	5.60541	2.59969	-141.46	27.7011	-16.5099	-135.977	56.7075	-9.47968	-144.81	0.74999	16.534	-130.126	19.2927	-1.86164	-129.036	42.186	-1.29742	-131.607	-0.573274	36.0493	-119.77	13.4968	20.4515	-121.175	40.6811	19.3192	-167.511	-11.4682	48.8362	-179.02	-19.0627	74.2942	-193.72	-10.3319	49.5981	
59	0.491667	-209.819	0.402202	58.8349	-205.633	22.6668	38.5579	-199.459	35.9705	21.0659	-185.932	49.1712	6.50167	-173.815	-6.91828	-3.86695	-167.049	12.2467	-22.0451	-161.475	34.5607	-22.0345	-148.328	-11.5697	3.22844	-140.359	5.68328	-16.6347	-138.433	37.5534	-12.6104	-136.358	-11.0835	17.6394	-129.353	7.17876	-2.62911	-131.296	34.3378	-3.65518	-127.83	-5.41288	40.6783	-116.721	11.3454	20.5237	-125.903	29.6602	17.2313	-155.459	-22.7665	60.8398	-166.705	-28.8202	80.8162	-187.743	-26.8333	54.0772	
60	0.5	-209.565	-10.8105	59.4245	-207.748	9.02861	37.5353	-203.32	23.0547	13.9932	-192.91	33.5525	1.5719	-172.602	-20.7218	4.37202	-164.575	-5.37333	-19.0594	-165.159	25.3631	-23.2698	-151.343	-21.3995	4.77634	-141.047	-4.86341	-15.0605	-149.555	29.0912	-18.0019	-135.915	-16.7856	20.7938	-127.894	0.116034	-0.889202	-137.056	22.2442	-6.66491	-128.773	-7.82133	39.3487	-118.758	6.08618	21.1159	-128.969	26.7027	12.6727	-154.156	-25.7777	58.5675	-166.502	-30.1508	85.1762	-179.522	-32.2914	60.3639	
61	0.508333	-212.599	-11.3374	58.3465	-214.151	8.93279	36.765	-211.022	21.2968	16.8472	-200.894	34.712	-1.72494	-173.542	-21.0845	5.17505	-167.578	-4.84123	-19.3309	-174.1	22.2564	-25.0396	-153.057	-20.0488	4.10196	-144.958	-0.504492	-16.1685	-154.656	28.7897	-16.7246	-137.85	-14.06	22.9105	-133.877	0.192798	-1.97466	-141.013	26.5681	-5.65174	-128.101	-5.57111	39.3289	-124.022	8.41012	18.7119	-137.892	26.1798	12.3752	-155.131	-23.3963	59.2528	-166.983	-27.8431	82.6269	-187.113	-35.2853	60.6846	
62	0.516667	-217.709	-3.69049	60.1039	-216.544	17.7708	35.7861	-212.541	29.4751	20.961	-200.084	43.1632	2.05851	-179.735	-11.4235	1.1516	-173.818	4.22183	-18.8867	-174.286	35.1199	-20.0481	-159.534	-12.2888	5.76571	-151.673	8.35201	-17.0163	-154.092	37.9176	-13.0528	-143.579	-8.53721	20.4949	-139.605	5.70035	-1.207	-146.133	34.7335	-2.71447	-135.241	-2.04282	40.4752	-126.963	12.6193	21.3451	-138.274	35.1454	14.1387	-165.623	-21.6819	62.2055	-176.202	-24.9936	81.752	-192.063	-27.4898	58.9537	
63	0.525	-221.278	12.6418	61.2527	-217.848	35.3474	41.2466	-208.821	47.5684	24.9706	-193.012	59.912	10.6074	-186.854	5.62885	3.01585	-175.395	24.1642	-16.1023	-171.578	51.9133	-15.8032	-164.346	-0.039764	5.65139	-153.714	17.8614	-12.5952	-153.75	49.7745	-8.14115	-153.362	-1.75551	23.6458	-143.179	16.0421	1.95283	-142.83	42.0764	4.44375	-144.792	0.147289	42.4319	-129.301	14.3295	26.0399	-138.76	38.4876	19.0176	-176.129	-14.1614	59.3232	-183.262	-21.7644	83.5645	-202.814	-16.3797	54.8277	
64	0.533333	-221.482	33.3699	62.0405	-212.246	58.013	47.5498	-196.702	69.2825	25.8388	-178.657	73.3024	17.6697	-191.355	23.202	1.89343	-175.097	39.6193	-14.6088	-165.192	61.315	-13.6567	-176.61	10.7504	4.05353	-155.12	27.6331	-11.2569	-144.388	54.9763	-1.94132	-161.405	1.23547	20.1186	-147.038	17.3554	3.20031	-141.543	44.5089	8.41945	-154.431	1.01932	38.5556	-136.418	11.5789	24.3562	-131.457	35.311	24.2583	-188.426	-6.34216	57.1862	-200.28	-9.40768	78.9987	-215.275	4.65443	54.8345	
65	0.541667	-218.298	53.9601	58.5663	-197.39	70.5671	39.0624	-182.69	75.9639	27.6794	-164.058	74.9601	12.0735	-202.372	35.6468	-0.458934	-178.572	43.2396	-19.3038	-156.263	60.5517	-18.6207	-189.789	18.3346	-3.50729	-163.599	24.7509	-17.9168	-143.07	42.5851	-9.44228	-180.155	6.57757	9.19866	-158.754	15.5626	-5.76298	-142.271	34.2041	0.907148	-168.624	-2.21034	26.7804	-148.443	2.22312	17.1417	-140.479	26.1457	12.3411	-204.889	4.3948	51.9963	-215.022	0.708803	70.3209	-225.435	20.8264	51.319	
66	0.55	-208.885	66.5957	47.1852	-185.501	75.3358	29.1348	-169.871	72.6433	10.456	-153.57	67.414	-5.88835	-209.572	46.0109	-13.0019	-188.475	45.1899	-34.4835	-160.875	52.669	-34.9837	-204.054	22.5879	-17.7839	-184.611	24.9388	-36.7356	-152.272	33.9486	-26.3828	-197.619	7.79335	-6.13927	-176.173	7.45869	-23.1971	-156.085	21.5429	-20.4298	-190.629	-4.88437	13.8786	-172.221	-4.13456	-3.13333	-151.495	8.92965	-3.99943	-219.719	14.7874	38.6157	-224.694	15.5879	59.2787	-231.253	38.8322	41.5023	
67	0.558333	-197.631	69.4866	29.134	-174.514	67.4943	9.46466	-162.13	63.9397	-12.8626	-154.488	49.3541	-30.4026	-213.337	50.9865	-30.2908	-197.453	47.6595	-53.1127	-170.086	45.1626	-58.0325	-216.969	30.53	-34.0669	-198.1	24.7587	-56.8694	-168.607	22.0356	-51.7983	-215.473	14.0288	-25.3242	-194.624	9.88283	-45.7371	-170.521	14.852	-43.0018	-209.354	-3.34675	-12.2215	-191.698	-6.31014	-28.059	-169.501	5.28678	-28.7576	-228.934	23.4673	21.1823	-228.671	27.388	42.2235	-228.218	51.0273	26.1886	
68	0.566667	-186.034	65.6219	10.4108	-166.353	58.3669	-13.2062	-161.564	51.3152	-32.8703	-155.493	39.3598	-54.7529	-212.07	60.0251	-52.2593	-198.473	49.2654	-76.4449	-177.991	36.099	-79.5301	-225.642	42.1729	-53.7352	-213.585	31.5083	-77.1279	-184.268	21.1524	-77.995	-227.582	27.5221	-44.0864	-213.987	17.3993	-67.7543	-190.943	8.87733	-69.7938	-228.394	5.62608	-32.3701	-214.235	1.90663	-52.8978	-191.495	4.12413	-56.8689	-232.138	34.9224	-0.886837	-232.485	35.3035	25.2852	-221.812	57.8651	7.54229	
69	0.575	-178.592	55.9352	-8.41033	-162.704	46.0467	-35.9776	-156.929	40.1928	-56.9739	-154.983	28.8859	-76.1648	-200.343	67.0075	-72.5099	-193.793	51.3399	-96.2417	-179.527	31.8754	-101.708	-222.7	52.5381	-76.0694	-217.073	40.9455	-98.7934	-192.556	18.6664	-103.071	-232.104	37.1287	-64.8079	-226.095	27.8362	-88.7666	-203.926	14.7268	-95.8241	-238.293	20.8259	-54.1222	-228.757	14.4288	-74.9396	-211.352	4.67552	-83.2992	-231.138	44.7774	-16.4846	-228.048	43.4819	9.07056	-211.326	63.1898	-10.654	
70	0.583333	-166.062	46.047	-27.4896	-158.118	32.3375	-51.0981	-149.726	25.6617	-73.6191	-148.424	17.3927	-94.3428	-184.773	62.0522	-91.4219	-181.248	52.9993	-114.295	-175.732	23.7512	-126.493	-207.114	56.3156	-92.9255	-209.33	45.2298	-119.058	-194.849	21.3311	-130.909	-225.651	44.333	-82.8345	-220.39	35.1449	-111.709	-208.581	14.1471	-123.157	-237.763	29.8893	-73.5448	-237.25	20.96	-92.5479	-218.381	8.22903	-107.411	-223.003	49.1634	-39.8476	-215.736	50.2356	-13.2915	-197.128	61.4421	-30.3635	
71	0.591667	-160.387	42.8498	-41.8352	-147.327	27.4514	-56.8936	-141.419	20.8189	-79.432	-131.765	11.8462	-98.0936	-179.211	54.563	-104.091	-174.45	46.3164	-129.438	-171.353	25.5956	-146.167	-199.821	54.7307	-105.324	-200.205	47.752	-132.73	-197.192	24.5088	-154.477	-216.754	45.9128	-98.8459	-219.581	41.1233	-120.16	-215.248	23.1209	-143.418	-231.892	32.7061	-80.5424	-235.678	26.9574	-104.51	-230.439	15.1773	-125.277	-214.469	51.0625	-55.6649	-211.577	54.0011	-29.0373	-185.645	61.695	-46.7321	
72	0.6	-157.227	41.8159	-37.0175	-144.26	26.9829	-54.4127	-129.616	20.9464	-71.9352	-121.076	13.7503	-88.5562	-173.822	51.9572	-105.835	-172.333	47.4924	-128.789	-167.796	37.4188	-149.546	-198.358	50.8766	-110.461	-201.612	45.6876	-135.701	-202.825	37.004	-158.459	-215.261	43.6209	-100.574	-217.383	41.495	-124.591	-217.566	34.9374	-147.09	-227.227	34.5252	-84.5975	-236.962	29.7657	-103.04	-243.355	24.1009	-123.5	-212.796	52.9797	-55.5381	-207.871	56.9478	-29.0294	-185.142	60.237	-47.1397	
73	0.608333	-159.46	43.7323	-29.4426	-145.757	29.9499	-49.2163	-128.215	23.6169	-65.5179	-113.854	18.2397	-72.7212	-169.817	48.2405	-97.4926	-165.865	43.9773	-121.398	-167.502	36.6795	-144.498	-192.953	45.9072	-103.326	-197.609	41.5248	-124.575	-201.799	36.7049	-152.839	-210.957	40.1962	-93.6104	-213.959	36.0318	-118.943	-218.393	33.2704	-139.605	-228.411	31.5891	-82.3309	-237.372	26.0124	-96.6716	-239.588	24.3229	-118.03	-208.432	51.84	-53.1906	-212.421	55.5682	-28.7657	-185.506	59.7711	-43.8466	
74	0.616667	-158.255	47.8175	-18.9495	-138.344	35.8694	-35.5488	-125.223	29.4544	-55.4785	-110.374	25.8568	-62.5342	-164.943	46.9387	-86.5419	-162.048	40.1416	-108.143	-156.268	33.6164	-129.339	-187.13	43.7704	-94.5838	-189.368	36.2962	-114.048	-188.838	32.0475	-137.272	-203.318	38.0548	-82.163	-208.85	31.4221	-107.67	-208.693	26.6676	-122.407	-223.561	28.6746	-69.2861	-225.326	23.6596	-83.8334	-229.874	20.6849	-104.479	-208.271	50.1773	-38.569	-205.184	59.9344	-15.647	-181.005	62.8493	-31.2862	
75	0.625	-146.568	51.4777	-4.46501	-132.361	38.2666	-23.8252	-120.081	33.758	-41.5155	-109.111	26.6892	-55.8544	-158.356	51.1925	-71.8071	-152.525	40.2835	-95.2726	-143.566	30.504	-112.992	-177.42	47.2805	-77.8711	-179.228	37.409	-100.067	-177.039	23.9933	-125.253	-197.378	37.9378	-69.486	-194.821	32.1617	-91.6247	-196.839	21.1519	-113.631	-210.375	30.0865	-53.9964	-216.586	22.8755	-70.3889	-215.675	18.9789	-91.707	-195.526	54.2092	-28.7851	-197.06	60.8968	1.22324	-175.706	66.4926	-13.5138	
